<svg width="86" height="39" viewBox="0 0 86 39" fill="none" xmlns="http://www.w3.org/2000/svg">
<path d="M20.7191 0.703125L19.1678 18.5197L16.4679 18.3436L15.8995 9.88134L11.897 17.7098L6.58007 10.9729L6.62744 18.2614L2.17494 18.2967L0.375 0.808757L6.55639 0.984809L11.8615 10.3626L15.5561 0.984809L20.7191 0.703125Z" fill="#551B0F"/>
<path d="M26.9479 18.0737C26.9321 18.0815 26.9123 18.0815 26.8887 18.0737H26.9479ZM28.5347 14.0714C28.6057 12.8821 28.5031 12.0957 28.2268 11.7123C27.8478 11.1802 27.3663 10.9494 26.7821 11.0198C26.34 11.0746 25.8466 11.3054 25.3019 11.7123C25.5071 13.8406 26.036 15.9649 26.8887 18.0854L21.0862 18.3319C20.7783 14.936 20.9362 11.3797 21.5599 7.66308L25.1361 7.89781C25.144 8.69592 25.1637 9.4236 25.1953 10.0809C25.5979 9.81483 26.0045 9.59183 26.415 9.41187C27.5202 8.91892 28.6254 8.75069 29.7307 8.90718C30.8201 9.06367 31.6569 9.50576 32.2411 10.2334C32.549 10.609 32.8135 11.2115 33.0345 12.0409L28.5347 14.0714Z" fill="#551B0F"/>
<path d="M33.3661 16.3131C33.6345 16.3444 33.9305 16.3601 34.2542 16.3601C34.9726 16.3679 35.5884 16.2662 36.1015 16.0549C36.7015 15.8045 36.9818 15.4563 36.9423 15.0103C36.9028 14.4704 36.4568 13.9462 35.6042 13.4376C35.47 13.3515 35.3002 13.2576 35.095 13.1559L34.8463 13.0151L34.5976 12.886C34.2266 12.6904 33.9779 12.5339 33.8516 12.4165C33.1648 11.7827 32.9161 11.1411 33.1056 10.4917C33.2792 9.89699 33.7924 9.37666 34.645 8.93066C35.5055 8.48466 36.5476 8.19906 37.7712 8.07387C39.0896 7.94085 40.4198 8.01127 41.7619 8.28513L41.5724 9.85787H41.4658C40.5185 9.76397 39.7369 9.84222 39.1212 10.0926C38.4817 10.3586 38.2212 10.7303 38.3396 11.2076C38.4343 11.5597 38.9514 11.9822 39.8909 12.4752L40.1632 12.616L40.4356 12.7686C40.6409 12.8781 40.8145 12.9838 40.9566 13.0855C41.3198 13.3359 41.5685 13.598 41.7027 13.8719C42.0106 14.49 42.0895 15.1434 41.9395 15.8319C41.7737 16.5909 41.3593 17.209 40.6961 17.6863C38.9672 18.9148 36.1805 18.8522 32.3359 17.4986L33.3661 16.3131Z" fill="#551B0F"/>
<path d="M45.4328 37.236C44.1381 37.9168 42.7645 38.351 41.3119 38.5388C39.6225 38.7501 37.9844 38.5662 36.3976 37.9872C34.8345 37.416 33.6621 36.5866 32.8806 35.499C31.5069 33.5663 30.8675 31.528 30.9622 29.3841C31.0412 27.3888 31.7319 25.6244 33.0345 24.0907C34.3292 22.5337 35.9713 21.5282 37.9607 21.0744C40.1317 20.5893 42.3619 20.8475 44.6513 21.849L43.9526 25.5579C41.9395 25.104 40.2422 25.4405 38.8607 26.5672C37.6291 27.5688 36.9304 28.8989 36.7647 30.5578C36.6778 31.4185 36.7765 32.2244 37.0607 32.9755C37.3607 33.7658 37.8383 34.4074 38.4936 34.9004C40.0646 36.0349 42.279 36.1171 45.1368 35.1469L45.4328 37.236Z" fill="#551B0F"/>
<path d="M51.0458 35.4872C51.4721 35.4794 51.9734 35.3229 52.5497 35.0178C52.9523 34.7987 53.2799 34.4153 53.5326 33.8675C53.7615 33.3511 53.8839 32.7878 53.8997 32.1774C52.5813 32.287 51.4839 32.7486 50.6077 33.5624C50.3314 33.8206 50.1577 34.1062 50.0866 34.4192C50.0235 34.7243 50.0708 34.9786 50.2287 35.1821C50.4103 35.3933 50.6827 35.4951 51.0458 35.4872ZM55.7825 27.4123C56.5009 27.8818 56.9785 28.5664 57.2153 29.4662C57.6495 31.1407 57.9732 33.0225 58.1864 35.1117C58.2495 35.7611 58.3008 36.4066 58.3403 37.0482C58.3482 37.1578 58.3522 37.2673 58.3522 37.3769C58.36 37.4629 58.364 37.5451 58.364 37.6233L58.3758 37.7172V37.7994C58.3758 37.8385 58.3758 37.862 58.3758 37.8698L51.78 38.3628C51.93 37.9715 52.1076 37.4825 52.3129 36.8957C52.0445 37.0443 51.7918 37.1734 51.555 37.283C50.4498 37.7681 49.4274 38.0302 48.488 38.0693C47.2722 38.1163 46.4788 37.7407 46.1078 36.9426C45.6815 36.0193 45.7131 35.1469 46.2025 34.3253C46.6209 33.6211 47.3433 32.9951 48.3696 32.4474C49.2695 31.9701 50.2642 31.618 51.3537 31.3911C52.3958 31.1798 53.2523 31.1329 53.9233 31.2502C53.9233 30.6086 53.8049 30.1157 53.5681 29.7714C53.3313 29.4428 53.0076 29.2784 52.5971 29.2784C52.2971 29.2863 51.9971 29.3254 51.6971 29.3958C51.4682 29.4506 51.2313 29.5288 50.9866 29.6305C50.5445 29.8105 50.3156 29.8927 50.2998 29.877L49.0919 29.1376C49.313 28.5821 49.834 28.05 50.655 27.5414C51.6497 26.9311 52.6997 26.6729 53.8049 26.7668C54.5707 26.8372 55.2299 27.0523 55.7825 27.4123Z" fill="#551B0F"/>
<path d="M70.7149 25.0649C68.5282 27.4827 66.9019 29.3723 65.8361 30.7338C68.0703 33.4255 70.3557 35.9645 72.6925 38.351C72.6846 38.3588 70.782 38.441 66.9848 38.5975C66.3611 36.9309 65.3743 34.9121 64.0243 32.5413C64.3796 34.8104 64.6283 36.8644 64.7704 38.7031L58.3995 38.2689C58.7311 35.139 58.9127 32.6195 58.9442 30.7103C58.9995 27.8387 58.8219 24.7128 58.4114 21.3326L61.7744 21.1331C62.0981 22.3146 62.3941 23.633 62.6625 25.0884C62.702 25.3309 62.7612 25.6557 62.8402 26.0625L62.9231 26.579L63.0296 27.1071C63.1875 27.9756 63.3375 28.7777 63.4796 29.5132C64.1428 28.6446 64.8809 27.5844 65.694 26.3325C65.9861 25.8708 66.3098 25.3622 66.6651 24.8067C66.7914 24.6033 66.9335 24.3724 67.0914 24.1142L67.2927 23.7973L67.4821 23.4922L70.7149 25.0649Z" fill="#551B0F"/>
<path d="M76.3161 34.7713C76.3713 35.1703 76.545 35.5068 76.8371 35.7807C77.6266 36.5162 78.6963 36.8213 80.0462 36.6961C80.5515 36.657 81.037 36.5592 81.5028 36.4027C81.9054 36.2619 82.1975 36.1249 82.379 35.9919L82.9711 37.0482C81.8264 37.7211 80.5278 38.1398 79.0752 38.3041C77.7726 38.4527 76.5411 38.3667 75.3806 38.0459C74.149 37.7094 73.3241 37.193 72.9057 36.4966C72.0846 35.1273 71.8675 33.758 72.2544 32.3887C72.6017 31.1368 73.3754 30.0765 74.5753 29.208C75.7516 28.3551 77.0621 27.8857 78.5068 27.7996C80.0699 27.7057 81.4712 28.0969 82.7106 28.9733C83.2553 29.3645 83.7251 29.8183 84.1198 30.3348C84.4435 30.7495 84.7119 31.1955 84.925 31.6728C85.1776 32.2283 85.3276 32.7095 85.375 33.1164V33.1281L81.7159 33.7854L77.1805 34.6187V34.607L76.3161 34.7713ZM83.0067 32.2009C82.4067 31.3872 81.4278 30.9451 80.0699 30.8746C78.7199 30.8121 77.7173 31.2424 77.0621 32.1657C76.8332 32.4709 76.6555 32.8308 76.5292 33.2455C76.4819 33.3942 76.4384 33.5467 76.399 33.7032C76.3911 33.758 76.3792 33.8167 76.3634 33.8793L76.3398 34.0201L83.0067 32.2009Z" fill="#551B0F"/>
</svg>
